# xmcd
#
# Track frame offsets: 
#        183
#        14065
#        25890
#        44330
#        63263
#        78790
#        95240
#        116900
#        129148
#        146353
#        155545
#        177340
#        195750
#        214245
#
# Disc length: 3084 seconds
#
# Revision: 4
# Processed by: cddbd v1.5.2PL0 Copyright (c) Steve Scherf et al.
# Submitted via: ExactAudioCopy v0.99pb5
#
DISCID=bb0c0a0e
DTITLE=The Blues Band - Ready
DYEAR=1980
DGENRE=Blues
TTITLE0=Twentynine Ways
TTITLE1=Find Yourself Another Fool
TTITLE2=Noah Lewis Blues
TTITLE3=Hallelujah I Love Her So
TTITLE4=Treat Her Right
TTITLE5=Lonely Avenue
TTITLE6=That's All Right
TTITLE7=I'm Ready
TTITLE8=Green Stuff
TTITLE9=Hey, Hey, Little Girl
TTITLE10=Can't Hold On
TTITLE11=Sus Blues
TTITLE12=The Cat
TTITLE13=Nadine
EXTD=
EXTT0=
EXTT1=
EXTT2=
EXTT3=
EXTT4=
EXTT5=
EXTT6=
EXTT7=
EXTT8=
EXTT9=
EXTT10=
EXTT11=
EXTT12=
EXTT13=
PLAYORDER=
